<?xml version="1.0" encoding="utf-8"?>
<!-- Generator: Adobe Illustrator 27.2.0, SVG Export Plug-In . SVG Version: 6.00 Build 0)  -->
<svg version="1.1" id="Layer_1" xmlns="http://www.w3.org/2000/svg" xmlns:xlink="http://www.w3.org/1999/xlink" x="0px" y="0px"
	 viewBox="0 0 523.7 600.8" style="enable-background:new 0 0 523.7 600.8;" xml:space="preserve">
<style type="text/css">
	.st0{fill:#EE3565;}
	.st1{fill:#60C3AC;}
	.st2{fill:none;stroke:#4E5EAA;stroke-width:22;stroke-linecap:round;stroke-linejoin:round;stroke-miterlimit:10;}
	.st3{fill:#FFFFFF;}
	.st4{font-family:'MyriadPro-Regular';}
	.st5{font-size:35px;}
	.st6{fill:none;stroke:#EE3565;stroke-miterlimit:10;}
</style>
<g>
	<path class="st0" d="M28,524.4L28,524.4c-6,0-10.8-4.8-10.8-10.8v-417c0-6,4.8-10.8,10.8-10.8h0c6,0,10.8,4.8,10.8,10.8v417
		C38.8,519.5,34,524.4,28,524.4z"/>
	<path class="st1" d="M28,65.6L28,65.6c-6,0-10.8-4.8-10.8-10.8V24.4c0-6,4.8-10.8,10.8-10.8h0c6,0,10.8,4.8,10.8,10.8v30.4
		C38.8,60.8,34,65.6,28,65.6z"/>
	<polygon class="st2" points="79.6,26.5 79.6,512.6 494.4,512.6 	"/>
	<polyline class="st2" points="124.3,468.4 124.3,161 393.1,471.3 	"/>
	<polyline class="st2" points="173.1,468.3 173.1,306.3 306.4,468.3 	"/>
	<path class="st0" d="M501.8,537.4H22.7c-2.6,0-4.7,2.1-4.7,4.7v40.5c0,2.6,2.1,4.7,4.7,4.7h479.1c2.6,0,4.7-2.1,4.7-4.7V542
		C506.5,539.4,504.4,537.4,501.8,537.4z M110.9,575.1c0,3.7-3,6.7-6.7,6.7H34.7c-3.7,0-6.7-3-6.7-6.7v-25.7c0-3.7,3-6.7,6.7-6.7
		h69.4c3.7,0,6.7,3,6.7,6.7V575.1z M494.4,575.1c0,3.7-3,6.7-6.7,6.7h-69.4c-3.7,0-6.7-3-6.7-6.7v-25.7c0-3.7,3-6.7,6.7-6.7h69.4
		c3.7,0,6.7,3,6.7,6.7V575.1z"/>
	<text transform="matrix(1 0 0 1 131.1751 574.4707)" class="st3 st4 st5">kamleaditya.tech/</text>
	<g>
		<line class="st6" x1="33.7" y1="547.4" x2="33.7" y2="576.9"/>
		<line class="st6" x1="37.1" y1="547.4" x2="37.1" y2="576.9"/>
		<line class="st6" x1="40.4" y1="547.4" x2="40.4" y2="576.9"/>
		<line class="st6" x1="43.8" y1="547.4" x2="43.8" y2="576.9"/>
		<line class="st6" x1="47.2" y1="547.4" x2="47.2" y2="576.9"/>
		<line class="st6" x1="50.5" y1="547.4" x2="50.5" y2="576.9"/>
		<line class="st6" x1="53.9" y1="547.4" x2="53.9" y2="576.9"/>
		<line class="st6" x1="57.2" y1="547.4" x2="57.2" y2="576.9"/>
		<line class="st6" x1="60.6" y1="547.4" x2="60.6" y2="576.9"/>
		<line class="st6" x1="64" y1="547.4" x2="64" y2="576.9"/>
		<line class="st6" x1="67.3" y1="547.4" x2="67.3" y2="576.9"/>
		<line class="st6" x1="70.7" y1="547.4" x2="70.7" y2="576.9"/>
		<line class="st6" x1="74.1" y1="547.4" x2="74.1" y2="576.9"/>
		<line class="st6" x1="77.4" y1="547.4" x2="77.4" y2="576.9"/>
		<line class="st6" x1="80.8" y1="547.4" x2="80.8" y2="576.9"/>
		<line class="st6" x1="84.2" y1="547.4" x2="84.2" y2="576.9"/>
		<line class="st6" x1="87.5" y1="547.4" x2="87.5" y2="576.9"/>
		<line class="st6" x1="90.9" y1="547.4" x2="90.9" y2="576.9"/>
		<line class="st6" x1="94.2" y1="547.4" x2="94.2" y2="576.9"/>
		<line class="st6" x1="97.6" y1="547.4" x2="97.6" y2="576.9"/>
		<line class="st6" x1="101" y1="547.4" x2="101" y2="576.9"/>
		<line class="st6" x1="104.3" y1="547.4" x2="104.3" y2="576.9"/>
	</g>
	<g>
		<line class="st6" x1="417.7" y1="547.4" x2="417.7" y2="576.9"/>
		<line class="st6" x1="421" y1="547.4" x2="421" y2="576.9"/>
		<line class="st6" x1="424.4" y1="547.4" x2="424.4" y2="576.9"/>
		<line class="st6" x1="427.7" y1="547.4" x2="427.7" y2="576.9"/>
		<line class="st6" x1="431.1" y1="547.4" x2="431.1" y2="576.9"/>
		<line class="st6" x1="434.5" y1="547.4" x2="434.5" y2="576.9"/>
		<line class="st6" x1="437.8" y1="547.4" x2="437.8" y2="576.9"/>
		<line class="st6" x1="441.2" y1="547.4" x2="441.2" y2="576.9"/>
		<line class="st6" x1="444.6" y1="547.4" x2="444.6" y2="576.9"/>
		<line class="st6" x1="447.9" y1="547.4" x2="447.9" y2="576.9"/>
		<line class="st6" x1="451.3" y1="547.4" x2="451.3" y2="576.9"/>
		<line class="st6" x1="454.6" y1="547.4" x2="454.6" y2="576.9"/>
		<line class="st6" x1="458" y1="547.4" x2="458" y2="576.9"/>
		<line class="st6" x1="461.4" y1="547.4" x2="461.4" y2="576.9"/>
		<line class="st6" x1="464.7" y1="547.4" x2="464.7" y2="576.9"/>
		<line class="st6" x1="468.1" y1="547.4" x2="468.1" y2="576.9"/>
		<line class="st6" x1="471.5" y1="547.4" x2="471.5" y2="576.9"/>
		<line class="st6" x1="474.8" y1="547.4" x2="474.8" y2="576.9"/>
		<line class="st6" x1="478.2" y1="547.4" x2="478.2" y2="576.9"/>
		<line class="st6" x1="481.5" y1="547.4" x2="481.5" y2="576.9"/>
		<line class="st6" x1="484.9" y1="547.4" x2="484.9" y2="576.9"/>
		<line class="st6" x1="488.3" y1="547.4" x2="488.3" y2="576.9"/>
	</g>
</g>
</svg>
